# xmcd
#
# Track frame offsets:
#	150
#	15835
#	33472
#	51400
#	66397
#	88445
#	105785
#	120822
#	140480
#	159817
#	175210
#	190210
#	210462
#	226127
#	244242
#
# Disc length: 3483 seconds
#
# Revision: 2
# Processed by: cddbd v1.5.2PL0 Copyright (c) Steve Scherf et al.
# Submitted via: audiograbber 1.83.01
#
DISCID=bc0d990f
DTITLE=Sound Choice - SC8301
DYEAR=1
DGENRE=Karaoke
TTITLE0=Alabama - Katy Brought My Guitar Back Today (F)
TTITLE1=Garth Brooks - The Night Will Only Know (Dm)
TTITLE2=Restless Heart - Big Iron Horses (Ab)
TTITLE3=Billy Ray Cyrus - When I'm Gone (B)
TTITLE4=Dolly Parton - He's Alive (Gm)
TTITLE5=Sammy Kershaw - I Know A Little (A)
TTITLE6=Ricky Lynn Gregg - If I Had A Cheatin' Heart (A)
TTITLE7=Ronnie Milsap - All Is Fair In Love And War (E)
TTITLE8=Western Flyer - She Should've Been Mine (A)
TTITLE9=George Strait - Just Look At Me (C)
TTITLE10=George Jones - Walls Can Fall (F)
TTITLE11=Reba McEntire - Silly Me (C)
TTITLE12=Chris LeDoux - Wild And Wooly (A)
TTITLE13=Rodney Crowell - I Don't Fall In Love So Easy (D)
TTITLE14=Kenny Rogers - Someone Must Feel Like A Fool Tonight (Bb)
EXTD=
EXTT0=
EXTT1=
EXTT2=
EXTT3=
EXTT4=
EXTT5=
EXTT6=
EXTT7=
EXTT8=
EXTT9=
EXTT10=
EXTT11=
EXTT12=
EXTT13=
EXTT14=
PLAYORDER=
